<svg height="24" viewBox="0 0 24 24" width="24" xmlns="http://www.w3.org/2000/svg"><path d="m10.1802464 4.7643196c-.87240965-.30933677-1.27148075-1.12694585-1.27148075-1.12694585-.06786742-.09453439-.35293725-.77920866-.35253725-.77947533-.29933666-.79307548-.84534272-1.03547817-.84534272-1.03547817-.6713408-.39453772-1.50041667-.40440449-1.50041667-.40440449.03573373-.00480006.49347214.2072023.49347214.2072023 1.08001201.51467238.75654174 1.74388604.75654174 1.74388604-.07026744.33093701-.08666763.97001078-.08666763.97001078-.01466683.8517428.59200658 1.26748075.65920733 1.31188124.33440371-.20320226.69094101-.38360426 1.06454516-.53627262.35813731-.14640163.71987467-.26333626 1.08267865-.3504039m-4.58325088 3.40590451c-.83600929.39840443-1.69588551.10226781-1.69588551.10226781-.11506794-.01866688-.80067556-.30133668-.80067556-.30133668-.77240858-.34907055-1.32961477-.13466817-1.32961477-.13466817-.75400838.19533551-1.34708164.77494195-1.34708164.77494195.02160024-.02866699.49533884-.20253559.49533884-.20253559 1.12761253-.39973777 1.76775297.69827443 1.76775297.69827443.18466872.28346981.62494028.74694163.62494028.74694163.59160657.61294011 1.31508128.47787201 1.39361549.46200511.09280103-.38080421.21746908-.76000842.37373748-1.13227922.149735-.35680397.32253692-.69507439.51787242-1.01361127m-.83240925 5.64939609c-.3094701.8728097-1.12694585 1.2720142-1.12694585 1.2720142-.09453439.0676007-.77920866.3528039-.77947533.3526705-.79307548.2993367-1.03547817.8452094-1.03547817.8452094-.39480439.6710742-.40413783 1.5002834-.40413783 1.5002834-.00493338-.0357338.2068023-.4934722.2068023-.4934722.51467239-1.080012 1.74415272-.7561417 1.74415272-.7561417.330537.0696008.96947743.0862676.96947743.0862676.85187614.0150668 1.26788076-.5921399 1.31201458-.6588073-.20306892-.3350704-.38333759-.691341-.53587262-1.0649452-.14680163-.3582706-.2638696-.720008-.35053723-1.0830787m3.40617118 4.5836509c.39813776.835876.10240114 1.6961522.10240114 1.6961522-.01880021.1144013-.30160335.8006756-.30187002.8005423-.34933721.7722752-.13453483 1.3297481-.13453483 1.3297481.19520217.753875.77494195 1.3470816.77494195 1.3470816-.02866699-.0218669-.20266892-.4954722-.20266892-.4954722-.39960444-1.1277458.69867443-1.7677529.69867443-1.7677529.28333648-.1848021.74694163-.6250737.74694163-.6250737.61267347-.5916065.47787197-1.3149479.46173847-1.3933488-.3806709-.093201-.76027512-.2177357-1.13267926-.3740041-.35667063-.1494684-.69494105-.3226703-1.01294459-.5178725m5.64926275.832676c.8729431.3089367 1.2717475 1.1266792 1.2717475 1.1266792.0678674.0945343.3528039.7794753.3524039.7797419.2993367.7929422.8456094 1.0353449.8456094 1.0353449.6712075.395071 1.5002833.4045378 1.5002833.4045378-.035467.0046667-.4933388-.2073356-.4933388-.2073356-1.080412-.5146724-.7564084-1.7437527-.7564084-1.7437527.0700008-.3310704.0861343-.9698775.0861343-.9698775.0152002-.8520094-.5920066-1.2680141-.6584073-1.3120146-.3352037.2032023-.691341.3833376-1.0653452.536006-.3578706.1466683-.7193413.2636029-1.0826787.3506706m4.5835176-3.4060379c.835876-.3986711 1.6961522-.1024011 1.6961522-.1024011.1149346.0188002.8005422.3016033.8002756.30187.7726752.3489372 1.3300147.1342682 1.3300147.1342682.7541417-.1954689 1.3469483-.774942 1.3469483-.774942-.0217335.0288003-.4950721.2024023-.4950721.2024023-1.1280126.3996044-1.7682863-.6982745-1.7682863-.6982745-.1848021-.2834698-.624807-.7468083-.624807-.7468083-.5917399-.6132068-1.3150813-.4780053-1.3934821-.4621384-.0929344.3806709-.2177358.7602751-.3738709 1.1324126-.149335.3568039-.3225369.6950743-.5178724 1.0136112m.8329426-5.6496628c.3090701-.87267632 1.1264125-1.27174742 1.1264125-1.27174742.0945344-.06786742.779742-.35307059.7800087-.35253725.7922755-.29933666 1.0348115-.84494272 1.0348115-.84494272.3949377-.6717408.4049378-1.50055.4049378-1.50055.0044001.03546706-.2073356.49320548-.2073356.49320548-.5146724 1.080012-1.7440194.75654173-1.7440194.75654173-.330937-.06986744-.9697441-.08653429-.9697441-.08653429-.8521428-.01520017-1.2678808.59213991-1.3122813.65867399.203469.33493705.3837376.69147434.5361393 1.06521183.146935.35800398.2634696.71974133.3510706 1.08267865m-3.4061712-4.58365088c-.3986711-.83547595-.1029345-1.69575218-.1029345-1.69575218.0190669-.11480127.3016034-.80094223.3022701-.80054223.3489372-.77240858.1342681-1.3297481.1342681-1.3297481-.1957355-.75414172-.7746752-1.34708164-.7746752-1.34708164.0284003.02186691.2024022.49533884.2024022.49533884.3993378 1.12761253-.6988078 1.76788631-.6988078 1.76788631-.2832031.18493539-.7464083.62480694-.7464083.62480694-.6133401.59147324-.4780053 1.31508128-.4620051 1.39374882.3805376.0926677.7601418.21773575 1.1320126.37360415.356804.14933499.6952077.32253692 1.0137446.51773909m-8.24275826.38707097c-.92507695.04266714-1.60268448-.56440628-1.60268448-.56440628-.09840109-.06173402-.62054022-.5886732-.62040689-.58907321-.5760064-.6216069-1.1730797-.64000711-1.1730797-.64000711-.7705419-.11306792-1.5422838.19066879-1.5422838.19066879.03120034-.01813354.53520594.00573339.53520594.00573339 1.19427994.06960078 1.35761509 1.33041479 1.35761509 1.33041479.06026733.33267036.28573651.93081034.28573651.93081034.30720341.79467549 1.02614473.9509439 1.10481227.96667741.23346926-.31427016.49560551-.61574018.78427538-.89787665.27653641-.27080301.56733964-.51547239.87080968-.73294147m-2.96176624 4.88258761c-.62414027.6840076-1.5322837.7341415-1.5322837.7341415-.11346792.0257336-.85507616.0224002-.85507616.0220002-.84720942-.0324004-1.28254759.3766709-1.28254759.3766709-.62440693.4652051-.95574395 1.2257469-.95574395 1.2257469.00946677-.035067.38267092-.3745375.38267092-.3745375.89374326-.7950755 1.90068778-.0193335 1.90068778-.0193335.27773642.1928021.86027623.456405.86027623.456405.77907532.3446705 1.39814887-.0532006 1.46481628-.0977344-.05706731-.387471-.08506762-.7858754-.0804009-1.1893465.00413338-.3873377.03693375-.7658752.09760109-1.1340126m1.35828175 5.5464616c.04253381.9250769-.56440627 1.6028178-.56440627 1.6028178-.06200069.0985344-.58893987.6205402-.58920654.6204069-.62174024.5760064-.64027378 1.1730797-.64027378 1.1730797-.11293459.7704086.19080212 1.5422838.19080212 1.5422838-.0180002-.0312003.00573339-.5350726.00573339-.5350726.06973411-1.1945466 1.33014812-1.3577484 1.33014812-1.3577484.33293703-.0602674.93107701-.2856032.93107701-.2856032.79467549-.3070701.95121057-1.0262781.96681074-1.1048123-.31440349-.2337359-.61560684-.4958722-.89787664-.7844087-.27093635-.2762697-.5154724-.5673396-.73280815-.870943m4.88245425 2.9618996c.6840076.6241402.7338748 1.5322837.7338748 1.5322837.0260003.1134679.0225336.8553428.0222669.8553428-.032267.8468094.3768042 1.2824143.3768042 1.2824143.4650719.6246736 1.2254803.9553439 1.2254803.9553439-.0348004-.0094668-.3744042-.3824042-.3744042-.3824042-.7952088-.8938766-.0193335-1.9005545-.0193335-1.9005545.1928021-.2778698.4562717-.8604096.4562717-.8604096.3446705-.7790753-.0533339-1.3981488-.0973344-1.4649496-.3877376.0574673-.786142.0850676-1.1898799.0805343-.3869376-.0042668-.7656085-.0368005-1.1337459-.0976011m5.546595-1.3580151c.9250769-.0425338 1.6025511.5644063 1.6025511.5644063.0985344.061734.6208069.5886732.6204069.5889398.5760064.6217403 1.1733464.6405405 1.1733464.6405405.7705419.1128012 1.5421504-.1909355 1.5421504-.1909355-.0312003.0177336-.5352059-.0058667-.5352059-.0058667-1.1944133-.0697341-1.3577484-1.3302815-1.3577484-1.3302815-.060134-.3328036-.2857365-.9308103-.2857365-.9308103-.3070701-.7948088-1.0261448-.9513439-1.1045456-.9670774-.2336026.3146702-.4958722.6158735-.7845421.89801-.2762697.2709363-.5672063.5154724-.8706763.7330748m2.9618995-4.8824543c.624007-.6844076 1.5321504-.7342748 1.5321504-.7342748.1136013-.0258669.8554762-.0226669.8554762-.0218669.8468094.031867 1.2821476-.3772042 1.2821476-.3772042.6248069-.4652052.9557439-1.2252136.9557439-1.2252136-.0096001.034667-.3826709.3742708-.3826709.3742708-.8937433.7953422-1.9009545.0194669-1.9009545.0194669-.2776031-.1929355-.8598762-.4562717-.8598762-.4562717-.779342-.3448039-1.3984155.0529339-1.4649496.097201.0572006.3876044.0848009.7862755.0801342 1.1897466-.0037334.3869376-.0366671.7654752-.0972011 1.1341459m-1.3581484-5.5468616c-.0428005-.92507694.5641396-1.60255114.5641396-1.60255114.062134-.09853442.5890732-.62094023.5893399-.62067356.6214736-.57573973.6402738-1.17281303.6402738-1.17281303.1126679-.7709419-.1906688-1.5422838-.1906688-1.5422838.0177335.03106701-.0061334.53520594-.0061334.53520594-.0697341 1.19427994-1.3301481 1.35748175-1.3301481 1.35748175-.332937.06026734-.9308104.28586985-.9308104.28586985-.7949421.30693674-.9513439 1.02614473-.967344 1.1045456.3146701.23346926.6160068.49613885.8981433.78440872.271203.27640307.5154724.56707296.7332081.87080967m-4.8825876-2.96176624c-.6841409-.6238736-.7344081-1.53228369-.7344081-1.53228369-.025467-.11360126-.0224003-.85534284-.0218669-.85534284.032267-.84694274-.3766709-1.28214758-.3766709-1.28214758-.4653385-.62494027-1.2254803-.95574395-1.2254803-.95574395.0346671.00946677.3742709.38253758.3742709.38253758.7952088.89400994.0193335 1.90082112.0193335 1.90082112-.1928021.27786976-.4560051.86000956-.4560051.86000956-.3452038.77934199.052934 1.3982822.0970678 1.46521628.3876043-.05760064.7861421-.08493428 1.1896132-.08040089.3869376.00373337.7656085.03666707 1.1340126.09733441" fill="#d47b27" fill-rule="evenodd"/></svg>