<svg height="64" viewBox="0 0 64 64" width="64" xmlns="http://www.w3.org/2000/svg"><g fill="none" fill-rule="evenodd"><g stroke="#b4dffb"><path d="m20 33h24l18 25h-60z" fill="#5ea7ff" stroke-linecap="round" stroke-linejoin="round" stroke-width="2"/><path d="m12 45h40" stroke-linecap="square" stroke-width="2"/><path d="m20 57.818894 7.475595-24.818894" stroke-linecap="round" stroke-width="2"/><path d="m36 57.818894 7.475595-24.818894" stroke-linecap="round" stroke-width="2" transform="matrix(-1 0 0 1 79.476 0)"/></g><path d="m47.5044647 22.529591c2.7614238 0 5-2.3418951 5-5.2307692s-5-11.76923079-5-11.76923079-5 8.88035669-5 11.76923079 2.2385763 5.2307692 5 5.2307692z" fill="#80d25b" transform="matrix(.25881905 .96592583 -.96592583 .25881905 48.760999 -35.486572)"/><path d="m17.5044647 22.529591c2.7614238 0 5-2.3418951 5-5.2307692s-5-11.76923079-5-11.76923079-5 8.88035669-5 11.76923079 2.2385763 5.2307692 5 5.2307692z" fill="#80d25b" transform="matrix(-.25881905 .96592583 .96592583 .25881905 8.483727 -6.509792)"/><path d="m44 15c-6.627417 0-12 5.372583-12 12" stroke="#22ba8e" stroke-linecap="round" stroke-width="2"/><path d="m32 15c-6.627417 0-12 5.372583-12 12" stroke="#22ba8e" stroke-linecap="round" stroke-width="2" transform="matrix(-1 0 0 1 52 0)"/></g></svg>