<svg height="192" viewBox="0 0 50.8 50.8" width="192" xmlns="http://www.w3.org/2000/svg"><path d="m5.87 32.487 9.373-4.476 6.7 1.627 9.736-9.691" fill="none" stroke="#000" stroke-linecap="round" stroke-linejoin="round" stroke-width="3.175" transform="translate(-.027 .084)"/><ellipse cx="65.35" cy="39.1" rx="11.6" ry="13.1" transform="matrix(.3484 0 0 .30851 13.366 2.486)"/><g fill="none" stroke="#000" stroke-linecap="round"><path d="m112.3 71.4-12.55 3.1m15.1-19.6-11.95-6.05m24.55-4.35-5.05-12.7m21.55 12.1 4.05-12.65m9.15 22.9 11.4-7.1" stroke-linejoin="round" stroke-width="7" transform="matrix(.26458 0 0 .26458 -.014 -3.109)"/><path d="m160.5 70.35 12.3 1.8" stroke-linejoin="round" stroke-width="7" transform="matrix(.26458 0 0 .26458 -.089 -3.217)"/><path d="m152.35 85 8.7 9.65" stroke-linejoin="round" stroke-width="7" transform="matrix(.26458 0 0 .26458 -.014 -3.109)"/><path d="m8.785 41.726v-4.747m6.625 4.747v-8.014m6.532 8.014v-6.797" stroke-width="3.175" transform="translate(-.027 .084)"/><path d="m28.613 41.726v-11.2" stroke-width="3.175" transform="translate(-.027 .084)"/><path d="m35.317 41.726v-17.172" stroke-width="3.175" transform="translate(-.027 .084)"/></g></svg>